<?xml version="1.0" encoding="UTF-8"?>
<!DOCTYPE svg PUBLIC "-//W3C//DTD SVG 1.1//EN" "http://www.w3.org/Graphics/SVG/1.1/DTD/svg11.dtd">
<!-- Creator: CorelDRAW -->
<svg xmlns="http://www.w3.org/2000/svg" xml:space="preserve" width="108.373mm" height="108.373mm" version="1.1" style="shape-rendering:geometricPrecision; text-rendering:geometricPrecision; image-rendering:optimizeQuality; fill-rule:evenodd; clip-rule:evenodd"
viewBox="0 0 10837.32 10837.32"
 xmlns:xlink="http://www.w3.org/1999/xlink"
 xmlns:xodm="http://www.corel.com/coreldraw/odm/2003">
 <defs>
  <style type="text/css">
   <![CDATA[
    .fil0 {fill:white}
    .fil1 {fill:white;fill-rule:nonzero}
   ]]>
  </style>
 </defs>
 <g id="Capa_x0020_1">
  <metadata id="CorelCorpID_0Corel-Layer"/>
  <g>
   <path class="fil0" d="M-0.01 -0.01l10837.33 0 0 10837.33 -10837.33 0 0 -10837.33zm10583.33 254l-10329.33 0 0 10329.33 10329.33 0 0 -10329.33z"/>
  </g>
  <path class="fil1" d="M2139.84 8294.42l501.59 0 0 -1466.42 662.84 0 0 -404.35 -1827.26 0 0 404.35 662.83 0 0 1466.42zm3101.73 -1115.81l-1220.74 0 0 -350.61 1225.85 0 0 -404.35 -1727.45 0 0 1870.77 1732.57 0 0 -404.35 -1230.97 0 0 -350.62 1220.74 0 0 -360.84zm1947.53 703.78l-870.12 0c-248.24,0 -337.81,-97.25 -337.81,-522.08 0,-424.82 87.01,-524.62 337.81,-524.62l870.12 0 0 -412.04 -872.67 0c-552.79,0 -829.18,161.23 -829.18,936.66 0,775.44 276.39,934.11 829.18,934.11l872.67 0 0 -412.03zm1683.95 -1458.74l0 729.37 -893.16 0 0 -729.37 -501.6 0 0 1870.77 501.6 0 0 -729.37 893.16 0 0 729.37 501.59 0 0 -1870.77 -501.59 0z"/>
  <path class="fil1" d="M4593.04 2509.08c-244.88,0 -489.76,0 -734.63,0 -280.82,599.84 -561.63,1199.66 -842.45,1799.49 -275.2,-599.83 -550.41,-1199.65 -825.61,-1799.49 -241.5,0 -483.01,0 -724.51,0 398.76,821.11 797.52,1642.24 1196.28,2463.35 238.14,0 476.27,0 714.41,0 405.5,-821.11 811,-1642.24 1216.51,-2463.35zm-535.81 2463.35c229.15,0 458.3,0 687.45,0 75.26,-159.51 150.51,-319.01 225.77,-478.51 440.33,0 880.66,0 1320.98,0 75.26,159.5 150.51,319 225.77,478.51 222.41,0 444.82,0 667.23,0 -402.13,-821.11 -804.27,-1642.24 -1206.4,-2463.35 -238.13,0 -476.27,0 -714.4,0 -402.13,821.11 -804.27,1642.24 -1206.4,2463.35zm1570.34 -1876.99c141.54,298.79 283.07,597.58 424.6,896.37 -281.94,0 -563.89,0 -845.83,0 140.41,-298.79 280.82,-597.58 421.23,-896.37zm3747.25 1334.45c-381.92,0 -763.83,0 -1145.75,0 -326.87,0 -444.81,-128.06 -444.81,-687.45 0,-559.39 114.57,-690.81 444.81,-690.81 381.92,0 763.83,0 1145.75,0 0,-180.85 0,-361.7 0,-542.55 -383.04,0 -766.07,0 -1149.11,0 -727.88,0 -1091.82,212.3 -1091.82,1233.36 0,1021.06 363.94,1229.99 1091.82,1229.99 383.04,0 766.07,0 1149.11,0 0,-180.85 0,-361.7 0,-542.54z"/>
 </g>
</svg>
